<?xml version="1.0" encoding="utf-8"?>
<!-- Generator: Adobe Illustrator 25.2.1, SVG Export Plug-In . SVG Version: 6.00 Build 0)  -->
<svg version="1.1" id="Camada_1" xmlns="http://www.w3.org/2000/svg" xmlns:xlink="http://www.w3.org/1999/xlink" x="0px" y="0px"
	 viewBox="0 0 676 678" style="enable-background:new 0 0 676 678;" xml:space="preserve">
<style type="text/css">
	.st0{fill:#E6F4FA;}
	.st1{fill:#FECF69;}
	.st2{fill:#49BBEC;}
	.st3{fill:#C2E5F4;}
	.st4{fill:#C2E5F3;}
	.st5{fill:#4C9ED6;}
	.st6{fill:#4ABCED;}
	.st7{fill:#4CA0D9;}
	.st8{fill:#FABA31;}
	.st9{fill:#4ABBEB;}
</style>
<g>
	<path class="st0" d="M676.54,394.54v46.36c-2.11,4.3-3.45,8.93-6.09,13.03c-12.31,19.15-30.5,30.73-50.93,39.03
		c-33.31,13.53-68.47,12.6-103.5,12.04c-0.59-0.01-1.16-0.59-1.74-0.9c45.76-7.93,67.12-59.18,40.91-97.44
		c-6.67-9.73-12.66-19.91-19.31-29.64c-10-14.67-18.52-30.32-29.59-44.28c0.03,0.01,0.04,0.04,0.05,0.05
		c0.05-0.43-0.03-0.83-0.24-1.2c-2.9-4.32-3.31,0.36-3.98,1.38c-15.89,24.14-31.66,48.37-47.46,72.58
		c-8.86,13.59-13.59,27.99-11.52,44.68c3.35,27.14,25.05,50.02,52.27,53.86c-2.11,1.82-4.66,1.04-7.03,1.04
		c-21.74,0.09-43.49,0.11-65.23,0.15c-1.59-2.11-3.3-4.16-4.76-6.36c-9.98-15.24-19.93-30.5-29.88-45.75
		c-1.94-5.69-4.02-6.04-7.18-0.6c-3.54,6.11-7.5,11.97-11.51,17.8c-7.99,11.6-14.74,24.06-23.64,35.06
		c-31.3-0.07-62.6-0.12-93.9-0.17c-6.55-9.7-13.15-19.38-19.63-29.12c-4.02-6.03-3.97-6.09-8.14,0.19
		c-6.38,9.58-12.7,19.21-19.04,28.81c-24.67,0.01-49.36,0.03-74.04,0.04c-15.74,0.01-31.42-1-46.87-4.05
		c-26.64-5.25-50.73-15.73-70.11-35.46c-6.56-6.68-10.89-14.77-14.92-23.04v-47.85h-0.53c6.38-27.24,20.31-49.89,41.82-68.03
		c11.48-9.7,24.81-16.1,38.34-22.19c0.13-0.29,0.28-0.59,0.41-0.88c0.15-0.28,0.28-0.57,0.39-0.87c0.08-0.2,0.15-0.4,0.19-0.6
		c0.17-0.8,0.35-1.59,0.53-2.39c0.2-0.78,0.39-1.56,0.6-2.34c0.15-0.52,0.29-1.04,0.44-1.55c0.15-0.51,0.31-1.03,0.47-1.54
		c0.29-0.94,0.6-1.88,0.92-2.81c0.4-1.14,0.83-2.27,1.28-3.38c1.8-4.46,3.96-8.7,6.43-12.7c0.67-1.08,1.36-2.15,2.08-3.21
		c0.27-0.4,0.55-0.79,0.83-1.18c0.33-0.48,0.68-0.95,1.03-1.42c0.35-0.47,0.69-0.94,1.06-1.39c0.53-0.68,1.08-1.36,1.64-2.03
		c1.11-1.35,2.26-2.65,3.45-3.92c0.59-0.63,1.19-1.24,1.8-1.86c0.47-0.47,0.95-0.94,1.43-1.39c0.48-0.47,0.98-0.92,1.47-1.36
		c0.44-0.4,0.88-0.79,1.32-1.18c0.59-0.51,1.18-1.02,1.79-1.51c0.48-0.4,0.96-0.79,1.46-1.16c0.43-0.33,0.86-0.67,1.28-0.99
		c0.37-0.28,0.76-0.57,1.15-0.84c0.37-0.28,0.76-0.56,1.15-0.83c0.76-0.53,1.54-1.06,2.33-1.56c0-0.01,0.01-0.01,0.03-0.01
		c0.53-0.35,1.07-0.68,1.6-1.02c0.43-0.27,0.86-0.53,1.28-0.79c0.87-0.51,1.74-1,2.62-1.48c0.63-0.35,1.26-0.68,1.9-1
		c0.36-0.19,0.72-0.37,1.1-0.55c0.29-0.15,0.57-0.29,0.88-0.43c0.83-0.4,1.67-0.79,2.51-1.15c0.23-0.11,0.47-0.21,0.71-0.31
		c0.24-0.11,0.47-0.2,0.71-0.29c0.28-0.12,0.55-0.23,0.82-0.33c1.42-0.57,2.85-1.1,4.3-1.59c0.53-0.19,1.07-0.36,1.62-0.53
		c0.03-0.01,0.05-0.01,0.08-0.03c0.88-0.27,1.76-0.53,2.66-0.78c0.44-0.12,0.9-0.24,1.35-0.36c0.45-0.12,0.9-0.23,1.35-0.33
		c1.9-0.45,3.81-0.84,5.73-1.16c0.47-0.08,0.94-0.15,1.4-0.21c0.72-0.11,1.43-0.2,2.15-0.28c0.03-0.01,0.07-0.01,0.09-0.01
		l2.25-0.24c1.11-0.09,2.23-0.16,3.35-0.21c0.53-0.03,1.08-0.05,1.62-0.07c0.29-0.01,0.59-0.01,0.87-0.01
		c0.4-0.01,0.79-0.01,1.19-0.01c1.47,0,2.93,0.05,4.4,0.13c0.52,0.03,1.03,0.05,1.54,0.09c0.29,0.03,0.57,0.03,0.84,0.03
		c0.27,0,0.52-0.01,0.78-0.04h0.01c0.01,0.01,0.03,0.01,0.05,0c0.17,0,0.35-0.03,0.51-0.07c0.51-0.07,0.96-0.2,1.38-0.37
		c0.15-0.05,0.28-0.12,0.4-0.19c0.17-0.09,0.35-0.19,0.51-0.29c0.07-0.04,0.12-0.08,0.19-0.12c0.16-0.12,0.32-0.25,0.48-0.39
		c0.4-0.36,0.78-0.78,1.12-1.24c0.13-0.16,0.24-0.32,0.33-0.48c0.45-0.64,0.87-1.38,1.3-2.15c0.45-0.83,0.92-1.66,1.39-2.49
		c-0.01-0.01-0.01-0.01,0.01-0.03c-0.01-0.01,0-0.04,0.03-0.05c0.01-0.07,0.05-0.13,0.11-0.2c0-0.01,0-0.01,0.03-0.03
		c0.48-0.86,0.98-1.7,1.47-2.54c-0.01-0.03,0.01-0.07,0.04-0.09c0.08-0.15,0.16-0.29,0.27-0.44c0.2-0.39,0.44-0.76,0.68-1.15
		c0.11-0.2,0.23-0.4,0.36-0.6c0.03-0.08,0.08-0.17,0.15-0.25c0-0.01,0.01-0.04,0.04-0.05l0.01-0.01c0.53-0.87,1.06-1.72,1.59-2.58
		c2.66-4.26,5.45-8.38,8.35-12.34c1.16-1.59,2.35-3.15,3.54-4.69c0.6-0.78,1.22-1.54,1.82-2.29c1.22-1.52,2.46-3.01,3.72-4.48
		c0.63-0.74,1.27-1.46,1.9-2.18c0.63-0.72,1.28-1.44,1.94-2.17c1.03-1.14,2.08-2.26,3.14-3.35c0.79-0.83,1.59-1.64,2.41-2.45
		c0.75-0.75,1.5-1.48,2.27-2.22c0.44-0.45,0.88-0.88,1.34-1.28c0.45-0.43,0.91-0.86,1.36-1.27c0.91-0.84,1.82-1.67,2.74-2.5
		c0.6-0.55,1.2-1.07,1.8-1.58c0.09-0.11,0.2-0.19,0.29-0.25c0.71-0.6,1.4-1.2,2.13-1.79c0.71-0.61,1.43-1.2,2.14-1.76
		c0.72-0.57,1.44-1.15,2.18-1.72c0.94-0.72,1.87-1.44,2.81-2.15c0.01-0.03,0.03-0.04,0.05-0.05c0.16-0.12,0.32-0.24,0.48-0.35
		c0.01-0.03,0.03-0.04,0.04-0.03c0.84-0.63,1.7-1.26,2.55-1.87c0.09-0.08,0.17-0.15,0.27-0.2c0.72-0.52,1.44-1.03,2.18-1.52
		c0.15-0.11,0.28-0.21,0.43-0.29c0.48-0.33,0.98-0.67,1.47-0.99c0.13-0.11,0.27-0.2,0.4-0.28c0.37-0.25,0.75-0.51,1.14-0.75
		c0.11-0.08,0.2-0.15,0.31-0.2c0.45-0.29,0.9-0.59,1.35-0.88c0.9-0.59,1.8-1.16,2.71-1.71c0.45-0.28,0.91-0.56,1.38-0.84
		c0.45-0.28,0.91-0.56,1.38-0.82c0.82-0.49,1.63-0.98,2.46-1.44c1.16-0.67,2.33-1.32,3.5-1.96c1.36-0.74,2.73-1.46,4.12-2.17
		c1.1-0.56,2.21-1.12,3.31-1.66c0.24-0.12,0.48-0.24,0.72-0.35c0.09-0.05,0.2-0.11,0.31-0.15c0.17-0.09,0.36-0.17,0.53-0.25
		c0.88-0.43,1.76-0.84,2.66-1.26c0.05-0.03,0.12-0.05,0.19-0.08c0.48-0.23,0.96-0.44,1.44-0.65c1.08-0.49,2.18-0.96,3.27-1.43
		c0.65-0.28,1.32-0.56,1.99-0.83c0.86-0.36,1.72-0.72,2.59-1.06c0.21-0.08,0.43-0.16,0.65-0.25c1.59-0.64,3.19-1.24,4.81-1.83
		c1.23-0.45,2.46-0.88,3.7-1.31c1.35-0.47,2.69-0.92,4.05-1.35c1.75-0.56,3.5-1.11,5.28-1.63c2.15-0.64,4.32-1.22,6.48-1.74
		c0.7-0.17,1.4-0.35,2.1-0.49c0.68-0.16,1.38-0.32,2.07-0.45c0.98-0.21,1.95-0.4,2.93-0.59c1.6-0.31,3.21-0.59,4.81-0.86
		c2.41-0.39,4.82-0.72,7.23-1c0.83-0.11,1.67-0.2,2.5-0.28c0.03-0.01,0.05-0.01,0.08,0c0.59-0.07,1.16-0.12,1.75-0.17
		c0.71-0.08,1.42-0.15,2.13-0.19c0.27-0.03,0.53-0.04,0.8-0.07c0.84-0.08,1.68-0.13,2.53-0.19c0.67-0.05,1.32-0.09,1.99-0.12
		c0.31-0.03,0.6-0.05,0.91-0.05c0.61-0.04,1.23-0.07,1.86-0.09c0.05-0.01,0.09-0.01,0.13,0c1.39-0.08,2.77-0.12,4.16-0.16
		c0.19,0,0.37-0.01,0.56-0.01c0.82-0.03,1.63-0.04,2.43-0.05c0.82-0.01,1.63-0.03,2.45-0.03c3.98-0.04,7.97,0.01,11.95,0.12
		c3.17,0.09,6.33,0.21,9.5,0.35c1.79,0.33,3.6,0.67,5.39,1.02c1.54,0.29,3.07,0.59,4.6,0.9c1.71,0.33,3.43,0.68,5.13,1.04
		c0.52,0.11,1.06,0.23,1.59,0.33c2.55,0.55,5.11,1.12,7.63,1.74c1.26,0.31,2.5,0.61,3.74,0.94c0.6,0.15,1.22,0.31,1.82,0.48
		c0.98,0.25,1.94,0.52,2.91,0.8c2.39,0.67,4.76,1.39,7.12,2.17c0.87,0.28,1.74,0.57,2.61,0.87c1.83,0.8,3.64,1.63,5.48,2.38
		c37.56,15.42,67.72,39.97,88.26,74.98c6.55,11.15,12.9,17.94,26.26,15.22c1.46-0.29,3.1,0.19,4.62,0.47
		c36.11,6.66,59.06,27.69,68.6,63.15c0.9,3.33,2.33,4.99,5.59,6.35C640.8,323.37,666.33,352.52,676.54,394.54z"/>
	<path class="st1" d="M359.21,133.88c-24.04-1.07-47.91-0.82-71.34,6.09c-50.52,14.89-88.45,45.31-113.79,91.42
		c-1.84,3.37-3.34,5.67-7.89,5.33c-40.04-2.98-77.41,24.51-86.07,65.5c-0.16,0.82-0.64,1.56-0.98,2.35
		c-1.62-2.13-3.23-4.24-4.84-6.36c-37.22-49.16-49.84-104.03-32.93-163.33C62.71,60.06,113.45,15.58,189.65,0.19h52.99
		c0.52,0.21,1.2,0.12,1.88,0c0.87-0.15,1.75-0.33,2.37,0c25.93,7.66,47.99,21.33,66.3,41.35C337.4,67.97,351.84,99.13,359.21,133.88
		z"/>
	<path class="st2" d="M423.29,628.4c-4.25,19.45-9.49,38.57-27.76,50.39c0,0-0.01,0-0.01,0.01h-31.63
		c-56.08-16.44-78.77-77.4-47.04-126.7c1.28-1.98,3.22-3.69,3.18-6.36c9.72-12.79,18.28-26.32,26.16-40.31
		c8.9-11,15.65-23.46,23.64-35.06c4.01-5.83,7.97-11.69,11.51-17.8c3.15-5.44,5.24-5.09,7.18,0.6c-2.41,2.1-0.37,4.2,0.23,6.08
		c8.21,25.33,16.24,50.73,24.91,75.9C424.1,565.56,430.32,596.31,423.29,628.4z"/>
	<path class="st3" d="M676.54,440.9v9.07c-12.79,51.44-51.36,86.78-104.1,94.94c-3.47,0.53-7.07,0.37-10.61,0.53
		c-1.98-0.08-3.97-0.23-5.95-0.23c-33.71-0.01-67.41,0-101.12-0.03c-2.81,0-5.83,0.65-7.78-2.39c-7.97-12.5-16.67-24.52-23.84-37.53
		c21.74-0.04,43.49-0.05,65.23-0.15c2.37,0,4.92,0.78,7.03-1.04c4.5-0.44,9.05,2.98,13.53-0.17c1.78,0.07,3.56,0.12,5.35,0.19
		c0.57,0.31,1.15,0.88,1.74,0.9c35.03,0.56,70.19,1.48,103.5-12.04c20.43-8.3,38.62-19.87,50.93-39.03
		C673.09,449.83,674.43,445.21,676.54,440.9z"/>
	<path class="st4" d="M205.45,505.14c-7.24,12.9-17.67,24.31-18.74,40.09c-23.88,0.08-47.77,0.16-71.66,0.24h-0.01
		c-53.17-0.24-102.39-40.24-115.53-93.05v-9.8c4.02,8.27,8.35,16.36,14.92,23.04c19.38,19.73,43.48,30.2,70.11,35.46
		c15.45,3.05,31.13,4.06,46.87,4.05C156.1,505.16,180.78,505.15,205.45,505.14z"/>
	<path class="st5" d="M561.83,545.46c-3.69,1.2-7.48,0.74-11.23,0.74c-33.31,0.04-66.62,0.03-100.01,0.03
		c-0.45,3.37,1.96,5.11,3.29,7.2c30.33,48.63,7.56,109.04-47.27,125.36c-0.01,0-0.04,0.01-0.05,0.01h-11.04
		c0-0.01,0.01-0.01,0.01-0.01c18.27-11.81,23.51-30.94,27.76-50.39c7.03-32.09,0.82-62.84-9.65-93.25
		c-8.67-25.17-16.71-50.57-24.91-75.9c-0.6-1.88-2.63-3.98-0.23-6.08c9.96,15.25,19.9,30.51,29.88,45.75
		c1.46,2.21,3.17,4.25,4.76,6.36c7.18,13,15.88,25.03,23.84,37.53c1.95,3.05,4.97,2.39,7.78,2.39c33.71,0.03,67.41,0.01,101.12,0.03
		C557.86,545.23,559.85,545.38,561.83,545.46z"/>
	<path class="st6" d="M508.92,503.92c-4.47,3.15-9.01-0.27-13.51,0.17c-27.22-3.83-48.91-26.71-52.28-53.86
		c-2.07-16.68,2.67-31.08,11.53-44.68c15.79-24.21,31.56-48.44,47.46-72.59c0.66-1,1.08-5.68,3.97-1.37
		c-0.15,0.14-0.45,0.38-0.43,0.4c0.2,0.29,0.45,0.54,0.68,0.8c0,0-0.07-0.05-0.07-0.05c0.63,13.58,4.9,26.48,7.7,39.63
		c5.76,27.07,13.22,53.92,10.79,81.97C523.25,471.95,521.7,489.8,508.92,503.92z"/>
	<path class="st2" d="M186.72,545.24c1.06-15.79,11.49-27.21,18.74-40.1c6.34-9.61,12.67-19.22,19.04-28.81
		c4.17-6.28,4.13-6.21,8.14-0.19c6.49,9.75,13.08,19.42,19.64,29.13c1.14,4.14,4.08,7.24,6.37,10.67
		c6.15,9.23,11.91,18.52,11.36,30.24c-0.17,1.5-0.34,3-0.51,4.5c-1.32,1.16-1.07,2.69-0.99,4.19
		c-2.18,14.68-14.98,27.97-29.43,30.55c-0.9,0.33-1.8,0.66-2.69,0.99c-25.76,4.45-43.25-13.23-47.37-29.2
		c-0.56-2.19-0.95-4.3-0.8-6.53c0.04-1.43,0.19-2.89-0.88-4.08c0,0-0.31-0.34-0.31-0.34C186.94,545.89,186.84,545.56,186.72,545.24z
		"/>
	<path class="st7" d="M508.92,503.92c12.78-14.12,14.32-31.97,15.85-49.57c2.43-28.05-5.03-54.9-10.79-81.97
		c-2.8-13.15-7.07-26.05-7.7-39.63c11.07,13.95,19.59,29.6,29.6,44.27c6.65,9.74,12.64,19.92,19.3,29.65
		c26.21,38.26,4.86,89.52-40.91,97.44C512.49,504.04,510.71,503.98,508.92,503.92z"/>
	<path class="st8" d="M359.21,133.88c-7.36-34.76-21.82-65.9-46.01-92.35c-18.32-20.02-40.38-33.69-66.3-41.35
		c17.73,1.13,34.34,6.65,50.16,14.17c55.63,26.44,90.47,69.87,104.69,129.82C387.89,139.38,373.57,136.55,359.21,133.88z"/>
	<path class="st3" d="M269.99,546.16c0.55-11.71-5.21-21.01-11.36-30.24c-2.29-3.43-5.23-6.53-6.37-10.67
		c31.3,0.06,62.6,0.11,93.9,0.17c-7.87,13.99-16.44,27.52-26.16,40.31c-0.67-0.02-1.35-0.04-2.01-0.06
		c-15.05-0.72-30.11-0.65-45.16-0.05C271.89,545.81,270.94,545.99,269.99,546.16z"/>
	<path class="st7" d="M506.34,332.8c-0.24-0.26-0.48-0.52-0.68-0.8c-0.02-0.02,0.28-0.26,0.43-0.4
		C506.31,331.97,506.4,332.37,506.34,332.8z"/>
	<path class="st9" d="M186.72,545.24c0.12,0.32,0.22,0.66,0.29,1c-21.35-0.04-42.7-0.06-64.05-0.15c-2.64-0.01-5.28-0.4-7.91-0.61
		C138.94,545.39,162.83,545.31,186.72,545.24z"/>
	<path class="st2" d="M272.84,545.63c15.06-0.6,30.11-0.67,45.16,0.05C302.94,546.37,287.89,546.44,272.84,545.63z"/>
	<path class="st9" d="M187.31,546.57c1.07,1.19,0.92,2.65,0.88,4.08C187.9,549.29,187.61,547.93,187.31,546.57z"/>
	<path class="st9" d="M268.49,554.85c-0.08-1.49-0.33-3.03,0.99-4.19C269.7,552.19,269.73,553.67,268.49,554.85z"/>
	<path class="st9" d="M236.37,586.39c0.9-0.33,1.8-0.66,2.69-0.99C238.35,586.24,237.47,586.62,236.37,586.39z"/>
</g>
</svg>
