<?xml version="1.0" encoding="utf-8"?>
<!-- Generator: Adobe Illustrator 25.2.1, SVG Export Plug-In . SVG Version: 6.00 Build 0)  -->
<svg version="1.1" id="Camada_1" xmlns="http://www.w3.org/2000/svg" xmlns:xlink="http://www.w3.org/1999/xlink" x="0px" y="0px"
	 viewBox="0 0 676 678" style="enable-background:new 0 0 676 678;" xml:space="preserve">
<style type="text/css">
	.st0{fill:#4988C7;}
	.st1{fill:#DFEFFC;}
	.st2{fill:#9CC9ED;}
</style>
<g>
	<path class="st0" d="M16.32,237.34C16.55,129.67,93.18,38.78,199.23,20.38C319.28-0.46,436.02,83.34,453.76,203.6
		c8.26,56-2.9,108.19-34.37,155.5c-4.19,6.3-3.37,9.25,1.77,14.13c74.26,70.51,148.32,141.23,222.39,211.95
		c16.85,16.08,20.73,36.39,10.59,54.22c-14.12,24.84-47.37,28.92-67.9,7.72c-31.06-32.06-61.64-64.58-92.42-96.9
		c-41.2-43.25-82.54-86.37-123.44-129.91c-5.28-5.62-8.08-2.37-12.09,0.28c-113.89,75.23-266.65,31.35-322.85-92.72
		C22.64,299.63,16.25,269.36,16.32,237.34z M439.55,237.87c0.29-111.49-90.9-203.21-202.53-203.73
		C125.11,33.63,33.11,125.06,32.75,237.16c-0.36,111.41,90.75,203.03,202.57,203.7C347.16,441.52,439.26,349.98,439.55,237.87z
		 M642.92,618.39c-0.41-7.39-3.43-13.49-8.4-18.55c-3.9-3.97-8.25-7.48-12.28-11.33c-68.23-65.29-136.46-130.59-204.66-195.91
		c-13.02-12.47-12.97-12.53-25.91,0.42c-2.32,2.32-4.45,4.89-7.04,6.86c-4.79,3.65-4.71,6.48-0.39,10.93
		c19.17,19.77,37.91,39.96,56.89,59.91c38.19,40.16,76.42,80.27,114.64,120.39c14.02,14.72,27.91,29.57,42.18,44.05
		c9.2,9.34,19.19,11.32,29.54,6.46C637.32,637.03,642.04,628.85,642.92,618.39z"/>
	<path class="st1" d="M439.55,237.87c-0.29,112.11-92.4,203.65-204.23,202.98c-111.81-0.67-202.93-92.29-202.57-203.7
		c0.36-112.1,92.36-203.53,204.27-203.01C348.66,34.66,439.84,126.38,439.55,237.87z"/>
	<path class="st2" d="M642.92,618.39c-0.88,10.46-5.6,18.64-15.43,23.24c-10.35,4.85-20.34,2.87-29.54-6.46
		c-14.27-14.48-28.15-29.33-42.18-44.05c-38.22-40.12-76.46-80.23-114.64-120.39c-18.98-19.96-37.72-40.14-56.89-59.91
		c-4.32-4.45-4.39-7.29,0.39-10.93c2.59-1.97,4.72-4.54,7.04-6.86c12.94-12.95,12.88-12.9,25.91-0.42
		c68.2,65.33,136.42,130.62,204.66,195.91c4.02,3.85,8.38,7.37,12.28,11.33C639.49,604.9,642.51,611,642.92,618.39z"/>
</g>
</svg>
